<?xml version="1.0" encoding="UTF-8"?>
<svg id="Laag_2" data-name="Laag 2" xmlns="http://www.w3.org/2000/svg" viewBox="0 0 362.01 261.08">
  <defs>
    <style>
      .cls-1 {
        fill: #f7f5f3;
        stroke-width: 0px;
      }
    </style>
  </defs>
  <g id="Laag_1-2" data-name="Laag 1">
    <g>
      <path class="cls-1" d="m264.59,189.59h-35.64v-111.37h35.64v111.37Z"/>
      <path class="cls-1" d="m300.23,78.27h5.79v35.64h-41.43c0-19.68,15.96-35.64,35.64-35.64Z"/>
      <path class="cls-1" d="m202.23,78.22v111.37h-31.18v-16.48c-1.73,7.86-5.77,13.49-11.84,16.74-4.08,2.19-9.25,3.25-15.07,3.25h0c-.75.04-1.51.06-2.27.06-27.18,0-43.88-18.05-43.88-47v-67.94h35.64v63.92c0,12.48,5.12,18.72,15.81,18.72s17.15-7.35,17.15-19.82v-62.81h35.64Z"/>
      <path class="cls-1" d="m326.37,78.22h35.64v111.37h-35.64v-111.37Z"/>
      <path class="cls-1" d="m35.64,78.22h35.64v79.3c0,19.68-15.96,35.64-35.64,35.64h0v-114.94Z"/>
      <path class="cls-1" d="m35.64,193.16h0v67.93H0v-32.29c0-19.68,15.96-35.64,35.64-35.64Z"/>
      <circle class="cls-1" cx="53.46" cy="22.51" r="22.51"/>
    </g>
  </g>
</svg>